<?xml version="1.0" encoding="UTF-8"?>
<svg xmlns="http://www.w3.org/2000/svg" xmlns:xlink="http://www.w3.org/1999/xlink" width="595pt" height="608.8pt" viewBox="0 0 595 608.8" version="1.1">
<g id="surface1">
<path style=" stroke:none;fill-rule:evenodd;fill:rgb(94.139099%,48.631287%,0%);fill-opacity:1;" d="M 216.742188 37.847656 C 171.023438 57.535156 181.554688 78.710938 236.328125 61.253906 C 366.925781 19.640625 488.359375 74.339844 533.621094 198.464844 C 586.777344 344.226563 502.234375 490.722656 368.691406 529.71875 C 269.6875 558.628906 181.222656 534.523438 119.210938 457.644531 C 83.257813 413.0625 61.078125 430.039063 97.195313 472.859375 C 211.769531 608.703125 455.957031 587.488281 531.320313 442.871094 C 601.65625 307.90625 583.375 173.050781 489.125 88.488281 C 422.492188 28.703125 304.644531 -0.0078125 216.742188 37.847656 Z M 547.167969 361.015625 C 541.945313 379.855469 534.722656 397.480469 525.867188 413.800781 C 497.039063 466.921875 450.933594 506.183594 400.613281 528.558594 C 351.199219 550.535156 295.625 556.828125 243.378906 545.171875 C 194.890625 534.363281 149.265625 508.113281 114.070313 464.636719 C 107.585938 456.628906 101.902344 450.558594 96.875 446.589844 C 92.121094 442.839844 88.023438 441.003906 84.445313 441.21875 C 83.335938 441.28125 82.378906 440.433594 82.3125 439.320313 C 82.246094 438.214844 83.09375 437.253906 84.207031 437.1875 C 88.820313 436.910156 93.816406 439.039063 99.371094 443.429688 C 104.660156 447.601563 110.542969 453.871094 117.199219 462.089844 C 151.789063 504.820313 196.617188 530.617188 244.25 541.234375 C 295.648438 552.695313 350.332031 546.503906 398.96875 524.878906 C 448.519531 502.84375 493.921875 464.179688 522.3125 411.867188 C 546.546875 367.214844 558.378906 312.589844 549.816406 249.859375 L 549.824219 249.890625 C 557.042969 288.4375 555.484375 325.347656 547.167969 361.015625 Z M 514.34375 125.546875 C 477.1875 78.699219 424.917969 50.78125 372.3125 38.277344 C 319.699219 25.769531 266.796875 28.671875 228.367188 43.453125 C 216.191406 48.132813 205.472656 54.019531 196.691406 60.980469 C 195.820313 61.671875 194.546875 61.527344 193.855469 60.65625 C 193.164063 59.785156 193.308594 58.511719 194.179688 57.820313 C 203.269531 50.613281 214.351563 44.523438 226.929688 39.691406 C 266.082031 24.628906 319.859375 21.648438 373.242188 34.339844 C 426.640625 47.035156 479.726563 75.402344 517.503906 123.035156 C 531.113281 140.1875 542.738281 159.851563 551.671875 182.183594 C 541.390625 160.730469 528.953125 141.851563 514.34375 125.546875 Z M 514.34375 125.546875 "/>
<path style=" stroke:none;fill-rule:evenodd;fill:rgb(94.139099%,48.631287%,0%);fill-opacity:1;" d="M 487.710938 240.753906 C 500.40625 233.71875 493.441406 223.449219 467.226563 221.863281 C 408.230469 218.300781 381.484375 201.535156 389.128906 170.65625 C 395.445313 145.15625 467.804688 133.980469 469.785156 166.175781 C 470.507813 177.949219 457.398438 180.824219 437.78125 176.738281 C 406.367188 170.1875 408.085938 209.824219 440.019531 209.382813 C 480.476563 208.820313 510.230469 187.734375 500.511719 149.214844 C 493.128906 119.949219 454.339844 104.070313 402.574219 126.808594 C 334.007813 156.921875 333.636719 203.632813 396.492188 234.671875 C 434.371094 253.363281 466.324219 252.589844 487.710938 240.753906 Z M 413.15625 236.683594 C 371.972656 221.871094 357.742188 195.058594 361.046875 177.246094 C 364.996094 155.96875 398.703125 125.714844 461.449219 121.988281 C 405.726563 117.613281 354.703125 154.835938 355.464844 179.703125 C 356.011719 197.597656 371.621094 224.839844 413.15625 236.683594 Z M 453.0625 182.28125 C 474.566406 184.507813 482.9375 162.929688 462.898438 147.824219 C 487.742188 157.96875 481.003906 186.800781 456.621094 184.769531 C 429.695313 182.527344 418.789063 184.222656 426.195313 198.050781 C 427.914063 201.261719 425.449219 202.578125 423.539063 199.742188 C 411.300781 181.558594 428.59375 179.753906 453.0625 182.28125 Z M 453.0625 182.28125 "/>
<path style=" stroke:none;fill-rule:evenodd;fill:rgb(94.139099%,48.631287%,0%);fill-opacity:1;" d="M 251.476563 312.398438 C 241.511719 336.554688 252.050781 344.941406 266.035156 326.726563 C 287.265625 299.078125 298.652344 262.824219 301.765625 226.535156 C 347.039063 279.21875 386.207031 306.953125 422.710938 312.953125 C 453.066406 316.890625 458.78125 300.902344 442.210938 287.214844 C 380.988281 233.964844 344.847656 230.976563 309.226563 177.628906 C 347.363281 142.121094 369.058594 104.714844 356.808594 79.351563 C 352.355469 70.132813 347.296875 71.382813 341.988281 80.910156 C 325.996094 109.617188 312.394531 139.757813 298.71875 162.703125 C 291.96875 127.035156 276.792969 97.257813 255.121094 83.964844 C 211.484375 57.203125 185.136719 84.234375 196.480469 144.429688 C 206.132813 195.648438 263.574219 205.738281 257.851563 148.519531 C 253.929688 109.308594 225.109375 113.296875 237.394531 148.976563 C 245.058594 171.238281 217.953125 171.316406 213.113281 140.980469 C 206.78125 101.320313 235.105469 92.277344 261.132813 129.492188 C 288.191406 168.183594 285.78125 229.234375 251.476563 312.398438 Z M 440.175781 297.933594 C 441.574219 297.027344 443.449219 297.425781 444.359375 298.824219 C 445.265625 300.226563 444.867188 302.101563 443.46875 303.007813 C 432.183594 310.378906 411.136719 308.203125 384.886719 293.675781 C 363.496094 281.839844 338.367188 261.742188 312.035156 231.886719 C 370.511719 286.253906 411.816406 308.929688 435.945313 299.933594 C 437.511719 299.421875 438.921875 298.753906 440.175781 297.933594 Z M 347.289063 80.503906 C 346.144531 79.289063 346.207031 77.371094 347.421875 76.226563 C 348.636719 75.085938 350.554688 75.140625 351.699219 76.355469 C 357.746094 82.761719 358.992188 92.449219 355.433594 105.414063 C 352.089844 117.597656 343.601563 132.144531 330.65625 149.664063 C 351.550781 112.988281 357.144531 89.691406 347.289063 80.503906 Z M 294.511719 179.398438 C 291.335938 152.035156 283.007813 130.328125 272.535156 114.378906 C 264.957031 102.824219 256.277344 94.316406 247.65625 88.894531 C 243.34375 86.183594 239.058594 84.246094 234.949219 83.089844 C 223.445313 79.28125 213.492188 81.128906 205.082031 88.621094 C 209.40625 82.1875 215.796875 78.617188 223.277344 77.898438 C 231.296875 77.128906 240.566406 79.671875 249.804688 85.480469 C 258.894531 91.199219 268.011719 100.113281 275.917969 112.160156 C 294.867188 141.035156 307.015625 188.132813 295.351563 252.796875 C 298.265625 227.746094 297.988281 203.28125 294.511719 179.398438 Z M 210.1875 121.421875 C 209.875 129.691406 210.222656 136.839844 211.15625 142.859375 C 212.414063 151.007813 214.726563 157.085938 217.882813 161.117188 C 220.859375 164.925781 224.632813 166.898438 229.003906 167.066406 C 230.09375 167.105469 231.257813 167.03125 232.472656 166.84375 C 233.574219 166.675781 234.609375 167.433594 234.777344 168.535156 C 234.945313 169.640625 234.191406 170.675781 233.085938 170.84375 C 231.660156 171.0625 230.246094 171.144531 228.859375 171.097656 C 223.261719 170.882813 218.457031 168.394531 214.707031 163.597656 C 207.230469 154.03125 205.011719 131.984375 210.1875 121.421875 Z M 253.878906 168.585938 C 253.785156 165.898438 252.382813 130.113281 241.070313 128.671875 C 240.496094 128.59375 239.882813 128.597656 239.242188 128.683594 C 238.140625 128.828125 237.125 128.054688 236.976563 126.953125 C 236.828125 125.851563 237.601563 124.835938 238.707031 124.683594 C 239.683594 124.554688 240.648438 124.550781 241.578125 124.671875 C 244.960938 125.101563 247.835938 127.132813 250.046875 130.628906 C 252.070313 133.824219 253.539063 138.3125 254.300781 143.960938 C 255.191406 150.5625 255.132813 158.839844 253.878906 168.585938 Z M 253.878906 168.585938 "/>
<path style="fill:none;stroke-width:2.16;stroke-linecap:butt;stroke-linejoin:miter;stroke:rgb(10.594177%,9.812927%,9.423828%);stroke-opacity:1;stroke-miterlimit:4;" d="M 973.867188 4263.039063 C 979.921875 4299.484375 1063.4375 4785.460938 1220.429688 4784.953125 C 1228.4375 4784.875 1236.796875 4783.742188 1245.351563 4781.398438 C 1260.15625 4777.453125 1275.429688 4786.164063 1279.414063 4800.890625 C 1283.398438 4815.773438 1274.648438 4831.007813 1259.882813 4834.992188 C 1246.796875 4838.585938 1233.59375 4840.382813 1220.742188 4840.421875 C 1173.75 4840.578125 1130.820313 4817.960938 1094.375 4774.289063 C 1061.054688 4734.328125 1032.890625 4675.617188 1012.34375 4599.992188 C 988.28125 4511.398438 974.257813 4398.273438 973.867188 4263.039063 Z M 973.867188 4263.039063 " transform="matrix(0.1,0,0,-0.1,0,608.8)"/>
<path style="fill:none;stroke-width:2.16;stroke-linecap:butt;stroke-linejoin:miter;stroke:rgb(10.594177%,9.812927%,9.423828%);stroke-opacity:1;stroke-miterlimit:4;" d="M 1655.117188 4828.351563 C 1644.453125 4714.914063 1626.835938 4617.960938 1603.320313 4537.375 C 1571.484375 4428.390625 1528.984375 4349.71875 1478.671875 4300.265625 C 1431.171875 4253.585938 1376.132813 4233.46875 1316.210938 4239.054688 C 1301.210938 4240.460938 1285.507813 4243.546875 1269.21875 4248.273438 C 1254.453125 4252.53125 1238.984375 4244.132813 1234.6875 4229.328125 C 1230.390625 4214.601563 1238.867188 4199.09375 1253.632813 4194.835938 C 1272.695313 4189.210938 1291.875 4185.578125 1310.898438 4183.78125 C 1387.65625 4176.59375 1457.773438 4201.945313 1517.617188 4260.695313 C 1636.835938 4377.882813 1706.71875 4674.796875 1655.117188 4828.351563 Z M 1655.117188 4828.351563 " transform="matrix(0.1,0,0,-0.1,0,608.8)"/>
<path style="fill:none;stroke-width:2.16;stroke-linecap:butt;stroke-linejoin:miter;stroke:rgb(10.594177%,9.812927%,9.423828%);stroke-opacity:1;stroke-miterlimit:4;" d="M 399.726563 4188.351563 C 492.226563 4556.242188 644.960938 4837.609375 816.5625 5036.59375 C 940.78125 5180.65625 1074.609375 5281.125 1201.992188 5339.640625 C 1265.703125 5368.9375 1327.695313 5387.726563 1385.9375 5396.164063 C 1549.765625 5427.414063 1682.34375 5384.328125 1783.671875 5266.945313 C 1736.210938 5362.53125 1655.351563 5422.726563 1554.570313 5445.96875 C 1446.445313 5470.890625 1315.390625 5452.921875 1178.828125 5390.148438 C 1044.453125 5328.46875 903.984375 5223.117188 774.375 5072.882813 C 463.828125 4712.765625 213.320313 4091.59375 256.367188 3187.882813 C 261.601563 3535.109375 309.375 3868.585938 399.726563 4188.390625 Z M 399.726563 4188.351563 " transform="matrix(0.1,0,0,-0.1,0,608.8)"/>
<path style=" stroke:none;fill-rule:evenodd;fill:rgb(94.139099%,48.631287%,0%);fill-opacity:1;" d="M 76.984375 389.675781 C 80.636719 415.664063 66.480469 420.601563 52.375 396.199219 C -11.902344 284.953125 31.171875 102.296875 110.894531 66.757813 C 175.273438 38.066406 206.386719 79.703125 180.085938 159.839844 C 157.703125 228.027344 77.476563 231.480469 95.570313 154.394531 C 107.96875 101.574219 146.59375 112.1875 123.417969 158.691406 C 108.949219 187.710938 145.941406 192.683594 158 152.144531 C 173.765625 99.140625 136.722656 81.703125 94.511719 127.835938 C 53.5 172.636719 44.101563 248.714844 69.050781 356.128906 C 109.367188 331.140625 156.527344 329.855469 210.53125 352.273438 C 288.546875 385.261719 363.496094 387.066406 367.300781 349.394531 C 369.957031 323.089844 334.855469 315.488281 332.429688 331.796875 C 328.632813 357.339844 297.492188 353.511719 304.273438 321.558594 C 312.398438 283.253906 387.550781 277.210938 398.015625 340.433594 C 405.746094 387.148438 353.753906 422.554688 272.28125 403.464844 C 182.207031 382.351563 136.035156 343.289063 76.984375 389.675781 Z M 383.1875 329.507813 C 378.894531 316.953125 371.554688 308.65625 363.261719 304.085938 C 357.460938 300.882813 351.183594 299.496094 345.167969 299.738281 C 339.175781 299.980469 333.429688 301.839844 328.660156 305.128906 C 322.867188 309.128906 318.503906 315.265625 316.875 323.210938 C 315.949219 312.597656 320.769531 304.519531 331.34375 298.976563 C 335.570313 297.015625 340.222656 295.898438 345.007813 295.710938 C 351.742188 295.433594 358.746094 296.976563 365.207031 300.546875 C 375.238281 306.074219 383.808594 317.695313 383.1875 329.507813 Z M 51.097656 379.894531 C 50.507813 378.949219 50.792969 377.710938 51.738281 377.121094 C 52.679688 376.53125 53.921875 376.816406 54.511719 377.761719 C 57.90625 383.175781 61.785156 385.589844 66.332031 385.203125 C 71.234375 384.796875 77.09375 381.339844 84.09375 375.089844 C 97.992188 362.671875 116.964844 357.632813 141.175781 358.671875 C 165.058594 359.6875 194.097656 366.628906 228.449219 378.195313 C 234.992188 380.402344 241.394531 382.367188 247.628906 384.09375 C 268.109375 389.769531 286.730469 392.855469 303.265625 393.5625 L 303.265625 393.566406 L 303.347656 393.566406 C 317.546875 394.171875 330.207031 393.019531 341.179688 390.253906 C 349.105469 388.253906 356.144531 385.402344 362.242188 381.757813 C 374.972656 374.730469 384.609375 364.578125 391.144531 351.300781 C 390.972656 351.859375 390.792969 352.421875 390.605469 352.976563 C 383.628906 373.703125 366.957031 387.921875 342.160156 394.171875 C 317.738281 400.339844 285.359375 398.738281 246.554688 387.984375 C 240.277344 386.242188 233.808594 384.253906 227.167969 382.019531 C 193.164063 370.5625 164.488281 363.699219 141.015625 362.699219 C 117.871094 361.714844 99.832031 366.429688 86.78125 378.089844 C 79.109375 384.9375 72.484375 388.742188 66.664063 389.234375 C 60.488281 389.753906 55.382813 386.730469 51.097656 379.894531 Z M 51.097656 379.894531 "/>
<path style=" stroke:none;fill-rule:evenodd;fill:rgb(94.139099%,48.631287%,0%);fill-opacity:1;" d="M 179.699219 321.558594 C 189.738281 341.628906 207.289063 333.976563 200.414063 311.0625 C 190.214844 277.078125 202.261719 228.636719 197.375 187.03125 C 196.15625 176.628906 191.246094 174.839844 182.183594 181.507813 C 161.632813 196.640625 155.207031 272.601563 179.699219 321.558594 Z M 189.578125 182.765625 C 191.195313 182.339844 192.855469 183.296875 193.289063 184.910156 C 193.71875 186.527344 192.761719 188.191406 191.144531 188.621094 C 165.570313 195.464844 169.515625 268.910156 170.953125 285.496094 C 166.753906 254.59375 166.195313 230.648438 169.292969 213.671875 C 172.5625 195.742188 178.113281 185.835938 189.578125 182.765625 Z M 189.578125 182.765625 "/>
<path style=" stroke:none;fill-rule:evenodd;fill:rgb(73.631287%,4.704285%,10.205078%);fill-opacity:1;" d="M 192.628906 477.007813 C 208.496094 477.007813 221.359375 464.144531 221.359375 448.277344 C 221.359375 432.410156 208.496094 419.546875 192.628906 419.546875 C 176.761719 419.546875 163.894531 432.410156 163.894531 448.277344 C 163.894531 464.144531 176.761719 477.007813 192.628906 477.007813 Z M 192.628906 477.007813 "/>
<path style=" stroke:none;fill-rule:evenodd;fill:rgb(73.631287%,4.704285%,10.205078%);fill-opacity:1;" d="M 109.304688 306.96875 C 125.171875 306.96875 138.035156 294.105469 138.035156 278.238281 C 138.035156 262.367188 125.171875 249.503906 109.304688 249.503906 C 93.4375 249.503906 80.574219 262.367188 80.574219 278.238281 C 80.574219 294.105469 93.4375 306.96875 109.304688 306.96875 Z M 109.304688 306.96875 "/>
<path style=" stroke:none;fill-rule:evenodd;fill:rgb(73.631287%,4.704285%,10.205078%);fill-opacity:1;" d="M 238.183594 260.046875 C 252.140625 260.046875 263.453125 248.726563 263.453125 234.769531 C 263.453125 220.816406 252.140625 209.503906 238.183594 209.503906 C 224.226563 209.503906 212.914063 220.816406 212.914063 234.769531 C 212.914063 248.726563 224.226563 260.046875 238.183594 260.046875 Z M 238.183594 260.046875 "/>
<path style=" stroke:none;fill-rule:evenodd;fill:rgb(73.631287%,4.704285%,10.205078%);fill-opacity:1;" d="M 398.453125 116.410156 C 409.933594 116.410156 419.238281 107.105469 419.238281 95.628906 C 419.238281 84.144531 409.933594 74.839844 398.453125 74.839844 C 386.972656 74.839844 377.664063 84.144531 377.664063 95.628906 C 377.664063 107.105469 386.972656 116.410156 398.453125 116.410156 Z M 398.453125 116.410156 "/>
<path style=" stroke:none;fill-rule:evenodd;fill:rgb(73.631287%,4.704285%,10.205078%);fill-opacity:1;" d="M 303.351563 102.378906 C 313.398438 102.378906 321.542969 94.238281 321.542969 84.191406 C 321.542969 74.144531 313.398438 66.003906 303.351563 66.003906 C 293.308594 66.003906 285.164063 74.144531 285.164063 84.191406 C 285.164063 94.238281 293.308594 102.378906 303.351563 102.378906 Z M 303.351563 102.378906 "/>
<path style=" stroke:none;fill-rule:evenodd;fill:rgb(73.631287%,4.704285%,10.205078%);fill-opacity:1;" d="M 501.867188 293.101563 C 511.914063 293.101563 520.058594 284.960938 520.058594 274.914063 C 520.058594 264.867188 511.914063 256.722656 501.867188 256.722656 C 491.824219 256.722656 483.679688 264.867188 483.679688 274.914063 C 483.679688 284.960938 491.824219 293.101563 501.867188 293.101563 Z M 501.867188 293.101563 "/>
<path style=" stroke:none;fill-rule:evenodd;fill:rgb(73.631287%,4.704285%,10.205078%);fill-opacity:1;" d="M 126.816406 418.519531 C 135.152344 418.519531 141.910156 411.761719 141.910156 403.429688 C 141.910156 395.09375 135.152344 388.339844 126.816406 388.339844 C 118.480469 388.339844 111.726563 395.09375 111.726563 403.429688 C 111.726563 411.761719 118.480469 418.519531 126.816406 418.519531 Z M 126.816406 418.519531 "/>
<path style=" stroke:none;fill-rule:evenodd;fill:rgb(73.631287%,4.704285%,10.205078%);fill-opacity:1;" d="M 258.324219 446.484375 L 273.929688 447.675781 C 276.277344 447.855469 278.082031 448.988281 279.332031 451.078125 C 280.554688 453.214844 281.019531 456.191406 280.726563 460.015625 L 280.039063 469.003906 C 279.75 472.828125 278.839844 475.679688 277.3125 477.554688 C 275.722656 479.472656 273.769531 480.34375 271.449219 480.171875 L 264.957031 479.671875 C 264.527344 479.640625 264.140625 479.597656 263.800781 479.550781 C 263.457031 479.503906 263.160156 479.441406 262.90625 479.378906 C 262.648438 479.3125 262.417969 479.257813 262.203125 479.21875 C 261.992188 479.179688 261.800781 479.105469 261.636719 479.003906 L 260.445313 494.628906 L 254.683594 494.183594 Z M 274.890625 460.546875 C 275.007813 459.023438 274.902344 457.949219 274.578125 457.320313 C 274.25 456.691406 273.597656 456.34375 272.625 456.265625 L 263.425781 455.566406 L 262.265625 470.773438 L 271.464844 471.476563 C 272.4375 471.550781 273.132813 471.304688 273.550781 470.734375 C 273.972656 470.160156 274.238281 469.117188 274.355469 467.59375 Z M 329.359375 491.1875 L 323.683594 492.265625 L 314.769531 445.261719 L 320.445313 444.1875 Z M 375.78125 467.59375 L 390.429688 460.964844 L 394.003906 468.859375 L 372.519531 478.585938 L 369.460938 471.820313 L 370.742188 436.386719 L 356.601563 442.785156 L 353.03125 434.890625 L 374.042969 425.378906 L 377.101563 432.140625 Z M 429.875 433.921875 L 442.242188 423.648438 L 447.78125 430.316406 L 429.640625 445.382813 L 424.898438 439.675781 L 416.75 405.164063 L 404.8125 415.085938 L 399.273438 408.414063 L 417.019531 393.675781 L 421.757813 399.382813 Z M 441.253906 362.847656 L 446.652344 354.585938 L 492.441406 371.949219 L 489.164063 376.96875 L 480 373.507813 L 471.988281 385.785156 L 478.871094 392.746094 L 475.574219 397.800781 Z M 465.742188 379.496094 L 471.75 370.289063 L 451.71875 362.675781 L 450.679688 364.261719 Z M 465.742188 379.496094 "/>
</g>
</svg>
